<svg xmlns="http://www.w3.org/2000/svg" xmlns:xlink="http://www.w3.org/1999/xlink" width="1500" zoomAndPan="magnify" viewBox="0 0 1500 525.000007" height="525.000007" preserveAspectRatio="xMidYMid meet" version="1.0"><defs><g/><clipPath id="id1"><path d="M 27 52.417969 L 387.300781 52.417969 L 387.300781 471.621094 L 27 471.621094 Z M 27 52.417969 " clip-rule="nonzero"/></clipPath></defs><g clip-path="url(#id1)"><path fill="rgb(100%, 34.118652%, 34.118652%)" d="M 387.21875 136.007812 C 387.21875 146.574219 378.65625 155.140625 368.101562 155.140625 C 357.542969 155.140625 348.980469 146.574219 348.980469 136.007812 C 348.980469 125.4375 357.542969 116.871094 368.101562 116.871094 C 378.65625 116.871094 387.21875 125.4375 387.21875 136.007812 Z M 317.257812 161.289062 C 317.257812 166.402344 313.117188 170.550781 308.011719 170.550781 C 302.902344 170.550781 298.757812 166.402344 298.757812 161.289062 C 298.757812 156.175781 302.902344 152.035156 308.011719 152.035156 C 313.117188 152.035156 317.257812 156.175781 317.257812 161.289062 Z M 349.75 91.347656 C 349.75 105.445312 338.339844 116.871094 324.257812 116.871094 C 310.175781 116.871094 298.757812 105.445312 298.757812 91.347656 C 298.757812 77.253906 310.175781 65.832031 324.257812 65.832031 C 338.339844 65.832031 349.75 77.253906 349.75 91.347656 Z M 358.230469 189.953125 C 358.230469 198.296875 351.476562 205.058594 343.140625 205.058594 C 334.804688 205.058594 328.050781 198.296875 328.050781 189.953125 C 328.050781 181.613281 334.804688 174.851562 343.140625 174.851562 C 351.476562 174.851562 358.230469 181.613281 358.230469 189.953125 Z M 312.980469 199.914062 C 312.980469 212.15625 303.066406 222.078125 290.839844 222.078125 C 278.609375 222.078125 268.691406 212.15625 268.691406 199.914062 C 268.691406 187.675781 278.609375 177.75 290.839844 177.75 C 303.066406 177.75 312.980469 187.675781 312.980469 199.914062 Z M 223.472656 444.179688 C 217.308594 445.5625 211.464844 440.804688 211.464844 434.488281 L 211.464844 343.316406 C 211.464844 337.910156 215.222656 333.164062 220.511719 332.070312 C 270.976562 321.757812 276.492188 267.128906 317.273438 267.597656 C 322.574219 267.65625 327.117188 271.414062 328.324219 276.574219 C 330.714844 286.789062 331.984375 297.441406 331.984375 308.394531 C 331.984375 374.75 285.578125 430.253906 223.472656 444.179688 Z M 185.519531 292.9375 C 183.132812 291.75 179.375 290.894531 175.621094 290.71875 C 173.234375 290.71875 171.023438 290.71875 169.140625 291.230469 C 157.882812 294.476562 153.445312 306.777344 135.875 307.28125 C 135.527344 307.96875 135.875 307.28125 135.707031 307.96875 L 136.210938 312.242188 C 136.390625 314.117188 139.453125 314.464844 141.503906 314.285156 C 145.089844 313.949219 150.550781 312.410156 153.105469 310.539062 C 160.101562 305.40625 165.5625 299.777344 174.085938 298.753906 C 181.261719 298.070312 186.039062 299.089844 189.445312 301.144531 C 198.316406 306.777344 195.925781 320.601562 195.242188 329.824219 C 195.074219 332.050781 194.90625 333.925781 194.570312 336.144531 C 194.222656 338.367188 195.589844 339.90625 192.167969 340.410156 L 172.042969 342.460938 C 169.824219 342.460938 167.773438 342.628906 166.246094 344.167969 C 162.828125 347.929688 168.457031 351.003906 172.378906 350.484375 C 177.503906 349.804688 187.054688 346.5625 192 348.445312 C 194.570312 349.46875 194.222656 350.667969 194.390625 353.054688 C 194.570312 354.929688 194.570312 365.515625 194.222656 366.71875 C 192.347656 367.230469 185.855469 363.640625 178.695312 364.660156 C 177.15625 364.84375 175.800781 364.84375 174.261719 365.011719 C 171.527344 365.347656 167.773438 366.71875 162.144531 367.054688 C 158.050781 367.230469 158.902344 368.253906 154.296875 367.230469 C 151.222656 366.546875 150.371094 366.546875 147.644531 364.660156 C 145.941406 363.640625 141.503906 359.710938 140.480469 358.007812 C 137.75 352.710938 136.558594 345.539062 139.800781 340.410156 C 145.425781 331.027344 160.957031 330.34375 165.214844 328.804688 C 167.4375 327.949219 169.65625 327.269531 170.84375 325.21875 C 171.699219 323.339844 170.507812 319.917969 168.804688 318.898438 C 166.414062 319.0625 150.71875 324.53125 148.164062 325.378906 C 146.964844 325.730469 145.941406 325.730469 144.742188 326.066406 C 136.390625 328.289062 131.78125 335.125 129.394531 342.292969 C 129.046875 343.488281 129.214844 344.519531 128.878906 345.707031 C 128.710938 346.90625 128.195312 347.761719 128.195312 348.949219 C 127.511719 353.054688 129.394531 360.398438 132.96875 363.472656 C 133.992188 364.324219 133.824219 364.660156 134.507812 365.515625 C 138.597656 370.644531 150.203125 374.910156 156.683594 375.253906 C 167.773438 375.941406 173.75 370.296875 185.519531 373.371094 C 195.925781 376.109375 194.570312 387.210938 194.570312 395.230469 C 194.570312 397.96875 194.90625 407.699219 194.570312 409.753906 C 193.882812 412.648438 187.054688 413.503906 183.648438 414.703125 C 180.914062 415.722656 177.335938 417.429688 174.601562 417.945312 C 171.699219 418.460938 168.804688 420.167969 164.53125 419.820312 C 160.269531 419.652344 159.074219 420.335938 159.421875 421.1875 C 159.753906 422.558594 164.027344 424.601562 166.246094 425.113281 C 167.953125 425.464844 175.117188 425.464844 176.652344 424.945312 C 179.375 423.925781 182.28125 423.0625 185.183594 422.207031 C 187.574219 421.359375 191.496094 419.820312 194.222656 420.335938 C 195.242188 422.894531 194.738281 432.121094 194.050781 434.84375 C 192.855469 439.640625 189.445312 441.683594 184.835938 442.882812 C 181.765625 443.734375 171.875 444.417969 168.636719 444.238281 C 163.511719 444.238281 157.367188 443.734375 152.425781 442.699219 C 147.984375 441.851562 143.207031 440.660156 139.628906 437.753906 C 132.804688 432.289062 135.875 426.988281 136.726562 418.113281 C 137.242188 412.308594 137.578125 403.085938 144.058594 400.359375 C 149.6875 397.96875 170.339844 399.839844 175.285156 398.304688 C 177.671875 397.621094 179.542969 395.75 177.335938 393.691406 C 173.234375 389.765625 159.589844 390.285156 154.296875 390.449219 C 150.203125 390.621094 143.039062 391.816406 139.28125 393.523438 C 133.992188 395.914062 133.824219 398.640625 132.121094 403.433594 C 131.613281 404.972656 130.75 408.71875 130.414062 410.257812 C 129.898438 414.183594 128.195312 421.1875 128.027344 424.601562 C 127.855469 427.339844 127.855469 428.710938 126.320312 431.097656 C 122.566406 431.097656 112.328125 422.894531 109.425781 420.167969 C 106.019531 417.261719 105.332031 414.351562 106.355469 410.089844 C 109.089844 398.820312 116.421875 393.691406 122.050781 384.472656 C 125.804688 378.152344 127.175781 370.8125 123.933594 363.808594 C 121.367188 357.835938 114.71875 352.375 107.386719 352.191406 C 93.726562 352.023438 91.691406 355.097656 82.808594 356.125 C 79.746094 356.46875 73.425781 358.007812 70.363281 357.835938 C 61.664062 357.15625 57.738281 352.878906 55.003906 345.539062 C 54.152344 343.488281 51.929688 336.664062 53.46875 335.125 C 55.519531 334.605469 65.40625 336.664062 67.796875 337.34375 C 71.550781 338.535156 78.378906 339.90625 82.136719 340.074219 C 86.398438 340.242188 110.960938 340.925781 113.015625 337.515625 C 113.695312 334.605469 112.160156 333.238281 109.089844 332.730469 C 102.609375 331.53125 99.023438 330.511719 92.371094 331.882812 C 82.808594 333.757812 77.179688 332.050781 67.796875 328.976562 C 65.585938 328.289062 62.335938 327.773438 59.949219 327.101562 C 57.390625 326.417969 53.46875 327.773438 51.929688 325.898438 C 51.425781 323.339844 52.277344 320.78125 52.617188 318.210938 C 52.949219 315.488281 52.277344 312.242188 52.78125 309.507812 C 54.488281 308.820312 65.753906 310.1875 67.628906 310.707031 C 72.238281 312.410156 101.074219 316.855469 103.28125 317.023438 C 113.015625 317.195312 112.5 308.652344 103.113281 307.96875 C 93.226562 307.464844 85.542969 307.113281 74.109375 304.386719 C 70.53125 303.53125 60.632812 301.816406 58.925781 301.144531 C 50.226562 297.890625 50.910156 304.21875 52.949219 287.308594 C 53.296875 285.25 53.984375 284.0625 54.152344 281.839844 C 54.835938 273.46875 57.558594 277.226562 62.167969 278.261719 C 65.074219 278.933594 65.753906 279.621094 69.164062 279.28125 C 72.917969 279.113281 80.769531 276.722656 83.671875 277.914062 C 89.46875 280.300781 82.304688 284.578125 94.074219 291.0625 C 102.945312 296.015625 112.847656 289.527344 117.441406 282.695312 C 120.859375 277.578125 122.902344 267.664062 119.324219 262.371094 C 115.570312 256.90625 106.53125 256.398438 100.894531 253.324219 C 97.484375 251.441406 95.265625 250.253906 91.519531 249.046875 C 87.25 247.515625 84.691406 248.378906 81.273438 250.585938 C 82.136719 251.617188 84.175781 252.121094 85.714844 253.324219 C 89.636719 256.566406 92.707031 261.011719 98.335938 261.699219 C 108.070312 262.886719 116.085938 262.203125 111.644531 273.816406 C 110.277344 277.394531 109.089844 279.449219 106.703125 282.695312 C 105.164062 284.578125 100.894531 288.507812 98.335938 286.453125 C 94.246094 283.039062 95.433594 270.910156 87.417969 269.890625 C 78.546875 268.519531 66.609375 275.183594 63.703125 270.910156 C 56.539062 261.011719 70.363281 241.542969 76.160156 233.171875 C 78.03125 230.273438 80.253906 228.054688 82.304688 225.492188 C 83.839844 223.777344 87.082031 219.164062 89.636719 219.164062 C 90.488281 220.199219 91.171875 223.609375 91.34375 225.148438 C 91.691406 226.683594 92.878906 228.738281 93.726562 230.097656 C 95.433594 233.171875 99.535156 235.910156 103.113281 236.246094 C 104.816406 236.246094 108.574219 237.097656 109.941406 236.761719 C 111.480469 236.414062 110.625 235.910156 112.847656 236.078125 C 117.789062 236.414062 125.121094 235.742188 128.710938 239.488281 C 131.265625 242.394531 132.636719 245.304688 135.527344 248.027344 C 137.914062 250.417969 143.039062 252.304688 146.449219 252.808594 C 149.867188 253.15625 157.535156 254.691406 160.609375 254.691406 C 165.214844 254.691406 171.191406 255.363281 171.023438 249.566406 C 165.214844 246.152344 153.960938 246.492188 146.625 243.933594 C 140.132812 241.707031 137.75 234.371094 129.898438 230.945312 C 122.566406 227.703125 107.722656 232.148438 102.609375 228.222656 C 99.535156 225.660156 99.1875 222.921875 98.335938 219.34375 C 97.652344 216.101562 99.1875 211.140625 100.894531 208.242188 C 106.183594 198.335938 124.269531 187.75 134.855469 182.792969 C 150.371094 175.457031 165.898438 170.15625 183.648438 173.582031 C 193.882812 175.625 195.074219 182.792969 195.421875 191.164062 C 196.273438 217.972656 174.601562 192.871094 159.25 192.355469 C 147.132812 192.019531 147.476562 200.042969 141.503906 204.320312 C 139.800781 205.507812 132.96875 208.917969 132.46875 210.117188 C 130.582031 214.046875 141.839844 211.824219 143.554688 211.65625 C 151.054688 210.804688 152.085938 199.1875 163.679688 203.285156 C 164.53125 203.632812 168.804688 204.65625 169.992188 204.820312 L 193.703125 211.140625 C 196.09375 212.847656 195.589844 228.054688 195.074219 230.273438 C 191.316406 231.464844 189.960938 231.808594 185.855469 231.464844 C 183.46875 231.296875 178.007812 230.777344 176.136719 230.097656 C 169.488281 228.222656 167.097656 223.441406 162.660156 221.902344 C 157.199219 220.027344 153.445312 223.089844 156.863281 227.535156 L 159.25 230.441406 C 160.785156 231.980469 163.34375 234.203125 165.382812 235.054688 C 169.140625 236.929688 170.339844 236.59375 173.414062 237.617188 C 178.007812 239.152344 190.464844 237.097656 193.882812 239.320312 C 196.273438 240.859375 195.242188 245.304688 194.90625 247.691406 C 194.390625 250.417969 194.570312 254.34375 194.390625 257.253906 C 194.050781 263.570312 193.371094 267.832031 186.375 270.226562 C 183.46875 271.257812 179.542969 271.425781 176.304688 271.257812 C 171.359375 271.078125 171.023438 270.570312 167.097656 269.890625 C 164.195312 269.371094 161.460938 268.351562 158.050781 267.832031 C 150.550781 266.8125 155.328125 267.152344 148.5 267.832031 C 142.871094 268.351562 139.28125 272.613281 135.875 276.375 C 134.507812 278.082031 132.46875 280.652344 131.433594 282.527344 C 130.246094 284.914062 127.855469 287.308594 131.433594 289.011719 C 137.578125 291.75 140.820312 284.746094 143.375 281.15625 C 145.257812 278.429688 145.257812 277.394531 149.015625 276.039062 C 156.515625 273.46875 164.363281 278.59375 171.699219 279.28125 C 179.722656 279.964844 182.964844 279.621094 190.464844 277.226562 C 191.832031 276.890625 193.03125 275.871094 194.222656 276.542969 C 197.628906 278.59375 207.015625 302.683594 185.519531 292.9375 Z M 92.191406 404.453125 C 81.105469 396.082031 73.257812 384.132812 68.3125 371.496094 C 67.460938 369.273438 68.144531 366.886719 70.867188 366.886719 C 82.304688 366.71875 87.765625 360.230469 104.816406 360.230469 C 118.125 360.230469 120.007812 374.054688 114.035156 381.910156 C 110.109375 387.210938 103.460938 390.785156 100.042969 401.378906 C 97.832031 407.699219 96.632812 406.496094 92.191406 404.453125 Z M 341.074219 229.757812 C 336.117188 219.996094 322.808594 217.929688 315.523438 226.113281 C 308.335938 234.183594 297.558594 238.992188 285.710938 238.042969 C 268.488281 236.660156 254.496094 222.878906 252.859375 205.664062 C 251.433594 190.546875 259.351562 177.125 271.503906 170.515625 C 276.257812 167.933594 276.304688 161.113281 271.539062 158.550781 C 271.429688 158.5 271.3125 158.429688 271.203125 158.375 C 257.792969 151.199219 249.515625 137.128906 249.515625 121.921875 L 249.515625 73.003906 L 280.222656 73.003906 C 285.660156 73.003906 290.402344 68.914062 290.796875 63.492188 C 291.023438 60.351562 289.835938 57.472656 287.808594 55.441406 C 285.945312 53.582031 283.375 52.433594 280.542969 52.433594 L 106.003906 52.433594 C 100.273438 52.433594 95.28125 57.125 95.355469 62.859375 C 95.390625 65.644531 96.539062 68.160156 98.371094 69.996094 C 100.230469 71.847656 102.800781 73.003906 105.636719 73.003906 L 136.660156 73.003906 L 136.660156 83.261719 C 136.660156 84.414062 137.59375 85.351562 138.742188 85.351562 L 164.027344 85.351562 C 165.675781 85.351562 167.023438 86.695312 167.023438 88.359375 C 167.023438 89.175781 166.683594 89.925781 166.148438 90.476562 C 165.597656 91.015625 164.855469 91.351562 164.027344 91.351562 L 138.742188 91.351562 C 137.59375 91.351562 136.660156 92.289062 136.660156 93.441406 L 136.660156 99.03125 C 136.660156 100.183594 137.59375 101.121094 138.742188 101.121094 L 164.027344 101.121094 C 165.675781 101.121094 167.023438 102.453125 167.023438 104.113281 C 167.023438 104.933594 166.683594 105.683594 166.148438 106.234375 C 165.597656 106.773438 164.855469 107.109375 164.027344 107.109375 L 138.742188 107.109375 C 137.59375 107.109375 136.660156 108.042969 136.660156 109.195312 L 136.660156 114.789062 C 136.660156 115.941406 137.59375 116.871094 138.742188 116.871094 L 164.027344 116.871094 C 165.675781 116.871094 167.023438 118.207031 167.023438 119.871094 C 167.023438 120.691406 166.683594 121.4375 166.148438 121.988281 C 165.597656 122.527344 164.855469 122.867188 164.027344 122.867188 L 138.636719 122.867188 C 137.558594 122.867188 136.636719 123.6875 136.5625 124.761719 C 135.589844 138.976562 127.320312 151.726562 114.675781 158.527344 C 62.863281 186.394531 27.546875 240.980469 27.152344 303.871094 C 26.582031 395.960938 99.960938 470.410156 191.957031 471.027344 C 284.117188 471.644531 359.023438 397.039062 359.023438 304.9375 C 359.023438 277.878906 352.554688 252.339844 341.074219 229.757812 " fill-opacity="1" fill-rule="evenodd"/></g><g fill="rgb(0%, 0%, 0%)" fill-opacity="1"><g transform="translate(455.699478, 214.959334)"><g><path d="M 10.839844 0 L 31.300781 0 L 31.300781 -94.851562 L 10.839844 -94.851562 Z M 10.839844 0 "/></g></g></g><g fill="rgb(0%, 0%, 0%)" fill-opacity="1"><g transform="translate(509.074263, 214.959334)"><g><path d="M 46.613281 -94.851562 L 10.839844 -94.851562 L 10.839844 0 L 46.613281 0 C 74.527344 0 94.71875 -19.917969 94.71875 -47.425781 C 94.71875 -74.933594 74.527344 -94.851562 46.613281 -94.851562 Z M 46.207031 -18.96875 L 31.300781 -18.96875 L 31.300781 -75.746094 L 46.207031 -75.746094 C 62.46875 -75.746094 73.714844 -64.230469 73.714844 -47.425781 C 73.714844 -30.894531 62.46875 -18.96875 46.207031 -18.96875 Z M 46.207031 -18.96875 "/></g></g></g><g fill="rgb(0%, 0%, 0%)" fill-opacity="1"><g transform="translate(620.560901, 214.959334)"><g><path d="M 31.300781 -18.96875 L 31.300781 -38.484375 L 64.230469 -38.484375 L 64.230469 -57.046875 L 31.300781 -57.046875 L 31.300781 -75.882812 L 67.753906 -75.882812 L 67.753906 -94.851562 L 10.839844 -94.851562 L 10.839844 0 L 69.242188 0 L 69.242188 -18.96875 Z M 31.300781 -18.96875 "/></g></g></g><g fill="rgb(0%, 0%, 0%)" fill-opacity="1"><g transform="translate(707.394023, 214.959334)"><g><path d="M 73.714844 0 L 96.074219 0 L 57.726562 -94.851562 L 38.347656 -94.851562 L 1.085938 0 L 22.898438 0 L 29.40625 -17.886719 L 67.074219 -17.886719 Z M 48.238281 -69.785156 L 60.707031 -35.773438 L 35.773438 -35.773438 Z M 48.238281 -69.785156 "/></g></g></g><g fill="rgb(0%, 0%, 0%)" fill-opacity="1"><g transform="translate(815.765044, 214.959334)"><g><path d="M 42.277344 1.898438 C 61.925781 1.898438 78.1875 -7.996094 78.1875 -28.457031 C 78.1875 -49.730469 60.027344 -54.203125 45.664062 -57.859375 C 35.503906 -60.300781 27.371094 -62.332031 27.371094 -68.972656 C 27.371094 -75.203125 34.011719 -78.050781 40.652344 -78.050781 C 48.375 -78.050781 55.148438 -74.257812 55.148438 -65.992188 L 75.339844 -65.992188 C 75.339844 -84.960938 63.007812 -96.613281 41.191406 -96.613281 C 20.191406 -96.613281 6.773438 -86.316406 6.773438 -68.160156 C 6.773438 -47.699219 24.121094 -43.496094 38.484375 -39.972656 C 48.78125 -37.671875 57.453125 -35.636719 57.453125 -28.183594 C 57.453125 -21.136719 49.867188 -17.074219 42.140625 -17.074219 C 33.742188 -17.074219 26.152344 -21.546875 26.152344 -30.625 L 5.421875 -30.625 C 5.421875 -10.296875 20.460938 1.898438 42.277344 1.898438 Z M 42.277344 1.898438 "/></g></g></g><g fill="rgb(0%, 0%, 0%)" fill-opacity="1"><g transform="translate(910.724249, 214.959334)"><g/></g></g><g fill="rgb(0%, 0%, 0%)" fill-opacity="1"><g transform="translate(455.699478, 400.581492)"><g><path d="M 31.300781 -18.96875 L 31.300781 -94.851562 L 10.839844 -94.851562 L 10.839844 0 L 67.753906 0 L 67.753906 -18.96875 Z M 31.300781 -18.96875 "/></g></g></g><g fill="rgb(0%, 0%, 0%)" fill-opacity="1"><g transform="translate(537.520586, 400.581492)"><g><path d="M 73.714844 0 L 96.074219 0 L 57.726562 -94.851562 L 38.347656 -94.851562 L 1.085938 0 L 22.898438 0 L 29.40625 -17.886719 L 67.074219 -17.886719 Z M 48.238281 -69.785156 L 60.707031 -35.773438 L 35.773438 -35.773438 Z M 48.238281 -69.785156 "/></g></g></g><g fill="rgb(0%, 0%, 0%)" fill-opacity="1"><g transform="translate(645.891615, 400.581492)"><g><path d="M 67.886719 -50 C 74.527344 -54.609375 78.59375 -62.195312 78.59375 -70.328125 C 78.59375 -84.285156 66.398438 -94.71875 50 -94.71875 L 10.839844 -94.71875 L 10.839844 0.136719 L 51.085938 0.136719 C 67.617188 0.136719 81.03125 -12.058594 81.03125 -27.238281 C 81.03125 -37.398438 76.152344 -45.53125 67.886719 -50 Z M 58.671875 -67.210938 C 58.671875 -61.246094 54.472656 -57.046875 48.105469 -57.046875 L 30.894531 -57.046875 L 30.894531 -77.238281 L 48.105469 -77.238281 C 54.472656 -77.238281 58.671875 -73.171875 58.671875 -67.210938 Z M 49.1875 -18.699219 L 30.894531 -18.699219 L 30.894531 -39.972656 L 49.1875 -39.972656 C 55.964844 -39.972656 60.433594 -35.503906 60.433594 -29.40625 C 60.433594 -23.171875 55.964844 -18.699219 49.1875 -18.699219 Z M 49.1875 -18.699219 "/></g></g></g><g fill="rgb(0%, 0%, 0%)" fill-opacity="1"><g transform="translate(743.967829, 400.581492)"><g><path d="M 55.828125 2.167969 C 84.691406 2.167969 106.234375 -19.105469 106.234375 -47.425781 C 106.234375 -75.613281 84.691406 -96.886719 55.828125 -96.886719 C 26.828125 -96.886719 5.148438 -75.476562 5.148438 -47.425781 C 5.148438 -19.242188 26.828125 2.167969 55.828125 2.167969 Z M 55.828125 -17.210938 C 38.890625 -17.210938 26.015625 -30.351562 26.015625 -47.425781 C 26.015625 -64.5 38.890625 -77.507812 55.828125 -77.507812 C 72.765625 -77.507812 85.367188 -64.636719 85.367188 -47.425781 C 85.367188 -30.21875 72.765625 -17.210938 55.828125 -17.210938 Z M 55.828125 -17.210938 "/></g></g></g><g fill="rgb(0%, 0%, 0%)" fill-opacity="1"><g transform="translate(866.562042, 400.581492)"><g><path d="M 63.007812 0 L 85.910156 0 L 64.90625 -35.773438 C 75.476562 -40.921875 82.25 -50.949219 82.25 -63.414062 C 82.25 -81.710938 68.023438 -94.851562 49.050781 -94.851562 L 10.839844 -94.851562 L 10.839844 0 L 31.300781 0 L 31.300781 -32.25 L 44.445312 -32.25 Z M 31.300781 -75.882812 L 47.699219 -75.882812 C 56.371094 -75.882812 61.382812 -70.597656 61.382812 -63.550781 C 61.382812 -56.371094 56.371094 -51.21875 47.699219 -51.21875 L 31.300781 -51.21875 Z M 31.300781 -75.882812 "/></g></g></g><g fill="rgb(0%, 0%, 0%)" fill-opacity="1"><g transform="translate(967.211962, 400.581492)"><g><path d="M 73.714844 0 L 96.074219 0 L 57.726562 -94.851562 L 38.347656 -94.851562 L 1.085938 0 L 22.898438 0 L 29.40625 -17.886719 L 67.074219 -17.886719 Z M 48.238281 -69.785156 L 60.707031 -35.773438 L 35.773438 -35.773438 Z M 48.238281 -69.785156 "/></g></g></g><g fill="rgb(0%, 0%, 0%)" fill-opacity="1"><g transform="translate(1075.583016, 400.581492)"><g><path d="M 76.152344 -94.851562 L 2.84375 -94.851562 L 2.84375 -75.746094 L 29.269531 -75.746094 L 29.269531 0 L 49.730469 0 L 49.730469 -75.746094 L 76.152344 -75.746094 Z M 76.152344 -94.851562 "/></g></g></g><g fill="rgb(0%, 0%, 0%)" fill-opacity="1"><g transform="translate(1165.802607, 400.581492)"><g><path d="M 55.828125 2.167969 C 84.691406 2.167969 106.234375 -19.105469 106.234375 -47.425781 C 106.234375 -75.613281 84.691406 -96.886719 55.828125 -96.886719 C 26.828125 -96.886719 5.148438 -75.476562 5.148438 -47.425781 C 5.148438 -19.242188 26.828125 2.167969 55.828125 2.167969 Z M 55.828125 -17.210938 C 38.890625 -17.210938 26.015625 -30.351562 26.015625 -47.425781 C 26.015625 -64.5 38.890625 -77.507812 55.828125 -77.507812 C 72.765625 -77.507812 85.367188 -64.636719 85.367188 -47.425781 C 85.367188 -30.21875 72.765625 -17.210938 55.828125 -17.210938 Z M 55.828125 -17.210938 "/></g></g></g><g fill="rgb(0%, 0%, 0%)" fill-opacity="1"><g transform="translate(1288.396821, 400.581492)"><g><path d="M 63.007812 0 L 85.910156 0 L 64.90625 -35.773438 C 75.476562 -40.921875 82.25 -50.949219 82.25 -63.414062 C 82.25 -81.710938 68.023438 -94.851562 49.050781 -94.851562 L 10.839844 -94.851562 L 10.839844 0 L 31.300781 0 L 31.300781 -32.25 L 44.445312 -32.25 Z M 31.300781 -75.882812 L 47.699219 -75.882812 C 56.371094 -75.882812 61.382812 -70.597656 61.382812 -63.550781 C 61.382812 -56.371094 56.371094 -51.21875 47.699219 -51.21875 L 31.300781 -51.21875 Z M 31.300781 -75.882812 "/></g></g></g><g fill="rgb(0%, 0%, 0%)" fill-opacity="1"><g transform="translate(1389.04674, 400.581492)"><g><path d="M 89.839844 -94.851562 L 67.886719 -94.851562 L 45.9375 -56.777344 L 24.121094 -94.851562 L 2.304688 -94.851562 L 35.367188 -38.347656 L 35.367188 0 L 56.371094 0 L 56.371094 -38.210938 Z M 89.839844 -94.851562 "/></g></g></g><g fill="rgb(0%, 0%, 0%)" fill-opacity="1"><g transform="translate(1492.111853, 400.581492)"><g/></g></g></svg>